Coordinates
version=1
nRows=6
nColumns=63
inDegrees=yes

Units are S.I. units (second, meters, Newtons, ...)
If the header above contains a line with 'inDegrees', this indicates whether rotational values are in degrees (yes) or radians (no).

endheader
time	pelvis_tilt	pelvis_list	pelvis_rotation	pelvis_tx	pelvis_ty	pelvis_tz	hip_flexion_r	hip_adduction_r	hip_rotation_r	knee_angle_r	knee_angle_r_beta	ankle_angle_r	subtalar_angle_r	mtp_angle_r	hip_flexion_l	hip_adduction_l	hip_rotation_l	knee_angle_l	knee_angle_l_beta	ankle_angle_l	subtalar_angle_l	mtp_angle_l	L5_S1_Flex_Ext	L5_S1_Lat_Bending	L5_S1_axial_rotation	L4_L5_Flex_Ext	L4_L5_Lat_Bending	L4_L5_axial_rotation	L3_L4_Flex_Ext	L3_L4_Lat_Bending	L3_L4_axial_rotation	L2_L3_Flex_Ext	L2_L3_Lat_Bending	L2_L3_axial_rotation	L1_L2_Flex_Ext	L1_L2_Lat_Bending	L1_L2_axial_rotation	L1_T12_Flex_Ext	L1_T12_Lat_Bending	L1_T12_axial_rotation	Abs_r3	Abs_r2	Abs_r1	Abs_t1	Abs_t2	neck_flexion	neck_bending	neck_rotation	arm_flex_r	arm_add_r	arm_rot_r	elbow_flex_r	pro_sup_r	wrist_flex_r	wrist_dev_r	arm_flex_l	arm_add_l	arm_rot_l	elbow_flex_l	pro_sup_l	wrist_flex_l	wrist_dev_l
      0.00000000	      4.52465489	     -4.59302639	    101.86067508	      0.18194233	      0.98240756	      0.13893719	      2.80601657	      3.10117839	    -26.90635342	     14.54623381	      0.25387967	     32.85124097	     17.96915948	      0.00000000	      5.50938406	     -3.88290177	     -8.18353746	     13.17710732	      0.22998391	     34.02873497	     13.64459660	      0.00000000	      0.34672031	      0.46683400	     -1.36181921	      0.64389429	      0.62088922	     -1.44693291	      0.56962680	      1.13506019	     -1.44693291	      0.39626664	      1.13506019	     -1.19159181	      0.32196448	      0.95196789	     -1.10647811	      0.19811599	      0.72312586	     -1.02136441	      2.47658851	      5.28091957	     -7.57402991	      0.00000000	      0.00000000	     27.78802455	      1.93729556	     -0.92497144	     20.29266292	    -10.18712673	     75.34259256	     48.33233010	      9.63338135	     -4.62576198	      8.83414785	     20.41472836	     -4.16211944	     64.94207850	     44.71221792	     69.88403468	     -7.68491956	      1.90078171
      0.01694915	      4.19485091	     -4.71475681	    102.26799372	      0.18140850	      0.98192746	      0.14003051	      3.03632939	      2.57046792	    -27.77273221	     15.06814060	      0.26298867	     33.07709347	     17.91373425	      0.00000000	      5.42671685	     -3.32596388	     -6.82209546	     12.42696556	      0.21689147	     33.89795953	     13.05261389	      0.00000000	      0.34663719	      0.41971773	     -1.42264544	      0.64373992	      0.55822458	     -1.51156078	      0.56949023	      1.02050168	     -1.51156078	      0.39617164	      1.02050168	     -1.24481476	      0.32188729	      0.85588839	     -1.15589942	      0.19806849	      0.65014276	     -1.06698408	      2.47599475	      4.74793088	     -7.91232715	      0.00000000	      0.00000000	     27.80899893	      2.09693862	     -1.27939750	     20.57333089	    -10.05090929	     75.26390127	     48.53781790	      9.76825687	     -5.62978721	      9.86826527	     19.47328817	     -4.41281442	     60.99819137	     45.61277691	     75.33914205	     -5.95092051	      2.51307624
      0.03389831	      3.95200076	     -4.81602716	    102.69002670	      0.18082883	      0.98152928	      0.14091889	      3.16751560	      2.18994925	    -28.54149098	     15.35575004	      0.26800840	     33.25136476	     17.92090665	      0.00000000	      5.37939490	     -2.91152615	     -5.74543939	     11.85481773	      0.20690560	     33.77963011	     12.55674122	      0.00000000	      0.34845561	      0.38375530	     -1.47458635	      0.64711692	      0.51039454	     -1.56674800	      0.57247773	      0.93306263	     -1.56674800	      0.39824992	      0.93306263	     -1.29026306	      0.32357588	      0.78255380	     -1.19810141	      0.19910754	      0.59443695	     -1.10593976	      2.48898360	      4.34111666	     -8.20120690	      0.00000000	      0.00000000	     27.83218801	      2.09557076	     -1.77433245	     20.52501072	    -10.01432874	     74.17134970	     48.84590903	     10.58370272	     -6.36203354	     11.79206744	     19.09267577	     -4.60851825	     58.86758748	     46.29487187	     77.71499319	     -4.32193173	      3.26696454
      0.05084746	      3.80823913	     -4.90779625	    102.92568543	      0.18031030	      0.98125013	      0.14172261	      3.28497558	      1.95206588	    -28.88993638	     15.50454835	      0.27060542	     33.32777972	     17.83880498	      0.00000000	      5.32165601	     -2.59990632	     -4.71375079	     11.35783794	      0.19823167	     33.58519789	     11.65851654	      0.00000000	      0.35137728	      0.36877740	     -1.52051672	      0.65254275	      0.49047395	     -1.61554902	      0.57727773	      0.89664538	     -1.61554902	      0.40158909	      0.89664538	     -1.33045213	      0.32628894	      0.75201088	     -1.23541984	      0.20077698	      0.57123620	     -1.14038754	      2.50985278	      4.17168374	     -8.45665784	      0.00000000	      0.00000000	     27.83782075	      2.18341275	     -1.55253702	     20.87890498	    -10.10059846	     74.27318932	     49.19371201	      9.64857926	     -6.60262135	     12.81152512	     18.94987444	     -4.72342789	     57.50079066	     46.61673983	     78.90230127	     -2.66395194	      3.65935799
      0.06779661	      3.73658126	     -4.97098767	    103.14539895	      0.17983485	      0.98104302	      0.14239599	      3.34862208	      1.82723406	    -29.21166044	     15.53356922	      0.27111193	     33.35645935	     17.84599044	      0.00000000	      5.28038846	     -2.42268929	     -4.13766364	     10.98484220	      0.19172166	     33.40943632	     11.11606588	      0.00000000	      0.35412655	      0.36172608	     -1.55689389	      0.65764841	      0.48109569	     -1.65419976	      0.58179450	      0.87950080	     -1.65419976	      0.40473123	      0.87950080	     -1.36228216	      0.32884191	      0.73763183	     -1.26497629	      0.20234791	      0.56031370	     -1.16767042	      2.52949050	      4.09191779	     -8.65897676	      0.00000000	      0.00000000	     27.84300595	      2.15654752	     -1.52182643	     20.97901464	    -10.20587497	     73.64884818	     49.54603434	      9.49517469	     -6.76471576	     14.28904618	     19.13467598	     -4.83876928	     57.11801409	     46.81131577	     78.62254046	     -1.14056096	      4.33135497
      0.08474576	      3.67644587	     -5.02260131	    103.43465660	      0.17933396	      0.98090409	      0.14293359	      3.33838821	      1.75564676	    -29.51466892	     15.42069398	      0.26914188	     33.36331248	     17.87239009	      0.00000000	      5.29044292	     -2.27710172	     -3.56990460	     10.77047436	      0.18798024	     33.22387487	     10.60485776	      0.00000000	      0.35617433	      0.35491646	     -1.59870792	      0.66145134	      0.47203889	     -1.69862717	      0.58515880	      0.86294387	     -1.69862717	      0.40707164	      0.86294387	     -1.39886943	      0.33074348	      0.72374564	     -1.29895019	      0.20351801	      0.54976559	     -1.19903094	      2.54411759	      4.01488595	     -8.89153386	      0.00000000	      0.00000000	     27.86245577	      2.05622397	     -1.61808086	     20.83338165	    -10.27496166	     72.36156390	     49.75806983	     11.12797940	     -6.38772719	     16.05136851	     19.50752158	     -4.96600004	     57.22024135	     46.88297763	     77.79799073	      0.56244174	      5.11950454
